<?xml version="1.0" encoding="utf-8"?>
<!-- Generator: Adobe Illustrator 20.1.0, SVG Export Plug-In . SVG Version: 6.00 Build 0)  -->
<svg version="1.1" id="Lager_1" xmlns="http://www.w3.org/2000/svg" xmlns:xlink="http://www.w3.org/1999/xlink" x="0px" y="0px"
	 viewBox="0 0 659 125" style="enable-background:new 0 0 659 125;" xml:space="preserve">
<style type="text/css">
	.st0{fill:#FFFFFF;}
</style>
<g>
	<path class="st0" d="M153.6,114.7c-0.4-3.1-0.4-7-0.4-9.9V71.2c0-6.9,0.2-17,0.2-21.6c0-1.3-0.7-1.4-1.3-1.4h-19.3v0.5
		c1.4,0.2,4.5,0.5,6.3,1.8c2,1.4,2.5,3.1,2.9,6c0.4,2.5,0.4,7.9,0.4,10.6v22.4c0,5.2-0.2,13.2-1.6,17c-3.2,8.1-9.2,15.7-18.1,15.7
		c-5.4,0-8.5-1.4-11.6-5.2c-2.3-2.9-3.6-7.2-3.6-13.2V70.9c0-6.9,0.2-16.6,0.2-21.3c0-1.3-0.5-1.4-1.1-1.4H87.2v0.7
		c2.5,0.2,4.5,0.4,6.3,1.4c2,1.3,2.5,3.1,2.9,6.1c0.4,2.9,0.4,6.5,0.4,9.6l-0.2,36.6c0,8.5,2.3,12.4,4.7,15.3c5.2,6.3,12.6,7,17.5,7
		c6.1,0,11.2-2.2,15.2-5.4c3.1-2.5,5.4-5.4,8.3-11.4h0.4v8.5c0,2.3-0.2,4.5-0.2,6c0,0.5,0.4,1.1,0.9,1.1c1.1,0,16.4-0.4,20-0.4v-0.7
		c-2-0.2-4.5-0.4-6.3-1.4C154.9,119.9,154,117.6,153.6,114.7z"/>
	<path class="st0" d="M53.4,59.7v-0.5c4.9-1.3,9.9-3.1,14.4-5.8c6.1-3.6,13.2-10.5,13.2-21.8c0-20.7-16.8-26.7-38.5-26.7H0v0.9
		C1.3,6,3.1,6.3,4.3,6.7c2.7,0.9,5.1,2.7,6,5.6c2.2,5.8,2.3,17.1,2.3,28.7v46.4c0,11.5-0.2,23.1-2.3,29c-0.9,2.3-3.2,4.3-6,5.2
		c-1.1,0.4-3.1,0.7-4.3,0.9v0.9h49.8c23.1,0,37.9-14.1,37.9-34.1C87.7,71.6,72.6,61.1,53.4,59.7z M24.9,23.1c0-5.2,0-7.6,0.5-9.9
		c1.3-5.1,5.1-6,9.6-6h5.6c19.1,0,27.3,8.5,27.3,24.4c0,6-1.3,13.3-5.2,18.6c-3.4,4.3-9.6,8.7-17.5,8.7H24.7L24.9,23.1z M67.2,113.6
		c-4.5,5.1-11.4,7.4-20.2,7.4H36.8c-5.6,0-9-2-10.7-5.6c-1.3-2.7-1.3-8.1-1.3-15.3l-0.2-39h20.4c11.2,0,16.2,2.5,21.1,6.5
		c5.8,4.9,7.9,12.3,7.9,22.4C74.2,100.3,72.4,107.7,67.2,113.6z"/>
	<path class="st0" d="M589.1,79.9c-10.8-4.7-18.2-8.5-18.2-18.8c0-8.1,5.8-12.4,13-12.4c11.7,0,17.3,7.4,20.4,18.9h0.7l-0.5-20h-0.2
		l-4.3,3.6h-0.5c-3.8-2.9-8.5-4.7-15.5-4.7c-13.9,0-21.8,8.7-21.8,18.9c0,12.3,6.9,18.4,20.4,24.2c13.9,6,19.1,9.9,19.1,19.1
		c0,10.6-6,14.1-15,14.1c-12.3,0-21.3-8.5-24.6-24h-0.7v24.7h1.1l4.3-4.7h0.7c5.2,4.1,12.8,6.1,19.3,6.1c13,0,23.8-6.9,23.8-22.4
		C610.6,90.5,602.7,85.9,589.1,79.9z"/>
	<path class="st0" d="M658.3,113.6c-3.1,4.9-8.1,7.4-13.5,7.4c-8.1,0-10.5-3.1-10.5-9.6l0.7-60.8h19.5v-2.5H635V22.5h-0.9
		c-5.6,19.8-11.9,25.6-20.6,26.7V50c2.5,0.2,7.8,0.5,10.7,0.5c-0.2,8.8-0.7,55.4-0.7,59c0,6,1.3,9,3.8,11.4
		c3.1,2.7,7.2,4.1,14.1,4.1c8.3,0,15-5.2,17.7-10.8L658.3,113.6z"/>
	<path class="st0" d="M538.9,31.2c4.3,0,7.6-3.2,7.6-7.4c0-4.3-3.1-7.6-7.4-7.6c-4.2,0-7.6,3.2-7.6,7.6
		C531.5,28,534.8,31.2,538.9,31.2z"/>
	<path class="st0" d="M507.9,113.5c-3.8,3.8-8.7,7.6-19.7,7.6h-15c-3.1,0-6.9-0.5-9.4-2.3c-1.3-0.9-2.9-2.7-3.6-5.2
		c-0.7-2.5-1.3-6.7-1.3-13.5V36.6c0-9.7,0.4-18.9,2.2-24.2c1.1-3.2,3.4-4.9,5.4-5.6c2-0.7,3.8-0.9,4.9-1.1V4.9h-37.6v0.9
		c1.1,0.2,2.9,0.4,4.5,0.9c3.1,1.1,4.7,2.5,5.8,5.8c1.6,5.2,2.2,14.4,2.2,24.2v55.2c0,9.6-0.5,18.8-2,23.8c-0.9,3.1-3.4,5.1-6.3,6
		c-1.3,0.4-2.7,0.5-4.2,0.7v1.1h82.9l4-31.2h-1.1C517.8,98.7,514,107.1,507.9,113.5z"/>
	<path class="st0" d="M389.8,121c-8.1,0-10.5-3.1-10.5-9.6l0.7-60.8h19.5v-2.5h-19.5V22.5h-0.9c-5.6,19.8-11.9,25.6-20.6,26.7V50
		c2.5,0.2,7.8,0.5,10.7,0.5c-0.2,8.8-0.7,55.4-0.7,59c0,6,1.3,9,3.8,11.4c3.1,2.7,7.2,4.1,14.1,4.1c8.3,0,15-5.2,17.7-10.8l-0.7-0.5
		C400.3,118.5,395.2,121,389.8,121z"/>
	<path class="st0" d="M356,80.1c0.2-2.2,0.2-5.1,0.2-6.7c0-12.4-8.5-26.9-29.4-26.9c-20.2,0-33.2,17.1-33.2,40
		c0,11.5,2.3,20.4,9,28.1c6.9,7.9,15.9,10.3,26.2,10.3c13.9,0,23.5-8.8,27.1-25.4l-2-0.5c-3.1,12.4-9.2,21.6-24.2,21.6
		c-6.1,0-11.4-2.2-15.5-6.9c-5.8-6.5-8.5-18.6-8.3-31.4v-2.3H356z M314.9,53c3.2-2.9,7.4-4.3,12.1-4.3c4.7,0,7.9,1.3,11.2,3.8
		c3.4,2.7,6.1,7.9,6.1,16.8c0,7.6-1.1,8.7-7,8.7H306C306.9,65.3,309.6,57.5,314.9,53z"/>
	<path class="st0" d="M223,98.8c-2.3,8.7-8.1,22.4-23.8,22.4c-5.6,0-10.8-2.3-14.1-6.7c-4.5-6.1-7.9-16.4-7.9-31.4
		c0-14.2,3.4-26.2,8.1-30.7c3.1-2.9,7.9-4.1,11.6-4.1c8.7,0,11.9,2.3,14.1,12.4c0.9,4.5,2.9,7.2,6.9,7.2c3.4,0,5.6-2.3,5.6-5.4
		c0-2.9-1.1-6-3.4-8.5c-4-4.1-10.5-7.6-22.2-7.6c-19.7,0-33,17.9-33,38.4c0,16.2,5.2,25.6,11.2,31.6c4.9,4.9,12.3,8.5,22.4,8.5
		c13.9,0,23.1-11,26.7-25.4L223,98.8z"/>
	<path class="st0" d="M286.4,117.8c-2.3-2.7-5.1-8.7-7.8-20c-3.6-14.6-6.9-20.6-14.8-24.9l6.5-6.5c4.7-4.5,11.7-11,15-13.3
		c3.4-2.5,6.7-3.4,9.6-4v-0.9h-28.5v0.9c1.8,0.2,4.3,0.7,5.6,1.4c2.2,1.1,2.3,2.7,2.3,4.5c0,3.4-2.9,7-7.2,11.4l-21.7,22V9.7
		c0-2.3,0.2-5.1,0.2-8.5c0-0.9-0.7-1.3-1.4-1.3H226v0.9c1.6,0.2,3.4,0.4,5.2,1.4c1.4,0.9,2.5,2.2,2.9,5.1c0.4,2.5,0.4,10.3,0.4,13.2
		v82.3c0,4.3,0.2,8.5-0.7,12.8c-0.7,3.6-2.7,4.9-4.2,5.6c-1.8,0.9-3.4,1.1-4.9,1.3v0.9h30.5v-0.9c-1.8-0.2-3.4-0.5-5.2-1.4
		c-2.2-1.1-3.6-2.7-4.2-5.6c-0.5-3.1-0.5-8.3-0.5-12.6V91.5L255.7,81c7.4,2.5,10.7,11.5,13.9,26.3c2.2,9.6,5.2,14.4,7.8,16.1h16.8
		v-0.9C290.3,121.6,288.5,120.1,286.4,117.8z"/>
	<path class="st0" d="M546,114.9c-0.5-2.3-0.5-4.5-0.5-7.4V60.6c0-4.7,0.2-8.5,0.2-11.2c0-0.9-0.4-1.3-1.3-1.3h-18.6v0.9
		c3.1,0.2,4.3,0.5,5.6,1.4c1.4,1.1,2.5,2.9,2.9,5.2c0.4,2.2,0.4,10.5,0.4,13.5v38.2c0,3.4,0,6-0.9,9c-0.7,2.3-2.5,4-4.5,4.9
		c-1.4,0.7-3.4,1.1-4.5,1.3v0.7h30.7v-0.7c-1.3-0.2-3.1-0.5-4.5-1.3C549,120.5,547.1,119.2,546,114.9z"/>
</g>
</svg>
